<svg width="1920" height="284" viewBox="0 0 1920 284" fill="none" xmlns="http://www.w3.org/2000/svg">
<g clip-path="url(#clip0_131_9474)">
<path d="M-1124 283.47L434.42 1.46997H1485.58L3044 283.47M504.49 1.46997L-685.026 283.47M574.57 1.46997L-341.342 283.47M644.65 1.46997L-53.74 283.47M714.73 1.46997L199.01 283.47M784.81 1.46997L429.69 283.47M854.88 1.46997L646.75 283.47M924.96 1.46997L856.37 283.47M995.04 1.46997L1063.63 283.47M1065.12 1.46997L1273.25 283.47M1135.19 1.46997L1490.31 283.47M1205.27 1.46997L1720.99 283.47M1275.35 1.46997L1973.74 283.47M1345.43 1.46997L2261.34 283.47M1415.51 1.46997L2605.03 283.47M-1124 283.469H3044M-1020.11 264.67H2940.1M-916.212 245.87H2836.21M-812.315 227.07H2732.32M-708.422 208.27H2628.42M-604.525 189.47H2524.53M-500.631 170.67H2420.63M-396.738 151.87H2316.74M-292.843 133.07H2212.84M-188.949 114.27H2108.95M-85.05 95.4695H2005.05M18.84 76.6695H1901.16M122.73 57.8693H1797.27M226.63 39.0699H1693.37M330.52 20.2703H1589.48" stroke="url(#paint0_linear_131_9474)" stroke-opacity="0.1"/>
<rect y="-0.410156" width="1920" height="187" fill="url(#paint1_linear_131_9474)"/>
</g>
<defs>
<linearGradient id="paint0_linear_131_9474" x1="1011" y1="-115.03" x2="1013.21" y2="283.767" gradientUnits="userSpaceOnUse">
<stop offset="0.235" stop-color="#151515"/>
<stop offset="1"/>
</linearGradient>
<linearGradient id="paint1_linear_131_9474" x1="1920" y1="-0.410156" x2="1920" y2="186.59" gradientUnits="userSpaceOnUse">
<stop stop-color="white"/>
<stop offset="1" stop-color="white" stop-opacity="0"/>
</linearGradient>
<clipPath id="clip0_131_9474">
<rect width="1920" height="284" fill="white"/>
</clipPath>
</defs>
</svg>
