<svg width="360" height="165" viewBox="0 0 360 165" fill="none" xmlns="http://www.w3.org/2000/svg">
<g clip-path="url(#clip0_131_9363)">
<path d="M-1903 282.78L-344.58 0.779785H706.58L2265 282.78M-274.51 0.779785L-1464.03 282.78M-204.43 0.779785L-1120.34 282.78M-134.35 0.779785L-832.74 282.78M-64.27 0.779785L-579.99 282.78M5.81006 0.779785L-349.31 282.78M75.88 0.779785L-132.25 282.78M145.96 0.779785L77.37 282.78M216.04 0.779785L284.63 282.78M286.12 0.779785L494.25 282.78M356.19 0.779785L711.31 282.78M426.27 0.779785L941.99 282.78M496.35 0.779785L1194.74 282.78M566.43 0.779785L1482.34 282.78M636.51 0.779785L1826.03 282.78M-1903 282.779H2265M-1799.11 263.98H2161.1M-1695.21 245.18H2057.21M-1591.32 226.38H1953.32M-1487.42 207.58H1849.42M-1383.53 188.78H1745.53M-1279.63 169.98H1641.63M-1175.74 151.18H1537.74M-1071.84 132.38H1433.84M-967.949 113.58H1329.95M-864.05 94.7793H1226.05M-760.16 75.9793H1122.16M-656.27 57.1791H1018.27M-552.37 38.3797H914.37M-448.48 19.5801H810.48" stroke="url(#paint0_linear_131_9363)" stroke-opacity="0.1"/>
</g>
<defs>
<linearGradient id="paint0_linear_131_9363" x1="232" y1="-115.72" x2="234.21" y2="283.077" gradientUnits="userSpaceOnUse">
<stop offset="0.345082" stop-color="#0E384C"/>
<stop offset="1" stop-color="white"/>
</linearGradient>
<clipPath id="clip0_131_9363">
<rect width="360" height="165" fill="white"/>
</clipPath>
</defs>
</svg>
