<svg width="1920" height="284" viewBox="0 0 1920 284" fill="none" xmlns="http://www.w3.org/2000/svg">
<g clip-path="url(#clip0_131_9756)">
<path d="M-1124 282.78L434.42 0.779785H1485.58L3044 282.78M504.49 0.779785L-685.026 282.78M574.57 0.779785L-341.342 282.78M644.65 0.779785L-53.74 282.78M714.73 0.779785L199.01 282.78M784.81 0.779785L429.69 282.78M854.88 0.779785L646.75 282.78M924.96 0.779785L856.37 282.78M995.04 0.779785L1063.63 282.78M1065.12 0.779785L1273.25 282.78M1135.19 0.779785L1490.31 282.78M1205.27 0.779785L1720.99 282.78M1275.35 0.779785L1973.74 282.78M1345.43 0.779785L2261.34 282.78M1415.51 0.779785L2605.03 282.78M-1124 282.779H3044M-1020.11 263.98H2940.1M-916.212 245.18H2836.21M-812.315 226.38H2732.32M-708.422 207.58H2628.42M-604.525 188.78H2524.53M-500.631 169.98H2420.63M-396.738 151.18H2316.74M-292.843 132.38H2212.84M-188.949 113.58H2108.95M-85.05 94.7793H2005.05M18.84 75.9793H1901.16M122.73 57.1791H1797.27M226.63 38.3797H1693.37M330.52 19.5801H1589.48" stroke="url(#paint0_linear_131_9756)" stroke-opacity="0.1"/>
</g>
<defs>
<linearGradient id="paint0_linear_131_9756" x1="1011" y1="-115.72" x2="1013.21" y2="283.077" gradientUnits="userSpaceOnUse">
<stop offset="0.345082" stop-color="#0E384C"/>
<stop offset="1" stop-color="white"/>
</linearGradient>
<clipPath id="clip0_131_9756">
<rect width="1920" height="284" fill="white"/>
</clipPath>
</defs>
</svg>
