<svg width="22" height="23" viewBox="0 0 22 23" fill="none" xmlns="http://www.w3.org/2000/svg">
<g clip-path="url(#clip0_131_9624)">
<g clip-path="url(#clip1_131_9624)">
<path d="M22 11.5C22 5.42487 17.0751 0.5 11 0.5C4.92487 0.5 0 5.42487 0 11.5C0 17.5751 4.92487 22.5 11 22.5C17.0751 22.5 22 17.5751 22 11.5Z" fill="#1E84B5" fill-opacity="0.1"/>
<path d="M20.1663 10.6567V11.5001C20.1652 13.4768 19.5251 15.4002 18.3415 16.9834C17.158 18.5666 15.4944 19.7248 13.5988 20.2853C11.7031 20.8457 9.6772 20.7785 7.82294 20.0934C5.96871 19.4084 4.3856 18.1423 3.30972 16.4841C2.23384 14.8257 1.72281 12.8641 1.85288 10.8917C1.98294 8.91922 2.74712 7.04167 4.03143 5.53902C5.31574 4.03638 7.0514 2.98914 8.97951 2.5535C10.9076 2.11788 12.9249 2.31718 14.7305 3.12171" stroke="#1E84B5" stroke-width="1.83333" stroke-linecap="round" stroke-linejoin="round"/>
<path d="M20.1667 4.16663L11 13.3425L8.25 10.5925" stroke="#1E84B5" stroke-width="1.83333" stroke-linecap="round" stroke-linejoin="round"/>
</g>
</g>
<defs>
<clipPath id="clip0_131_9624">
<rect width="22" height="22" fill="white" transform="translate(0 0.5)"/>
</clipPath>
<clipPath id="clip1_131_9624">
<rect width="22" height="22" fill="white" transform="translate(0 0.5)"/>
</clipPath>
</defs>
</svg>
