<svg width="179" height="172" viewBox="0 0 179 172" fill="none" xmlns="http://www.w3.org/2000/svg">
<path d="M58.7756 59.723L56.1366 62.2269L56.1365 62.2269L56.1295 62.2336C55.7402 62.6103 55.4744 63.0707 55.3428 63.5962L55.3428 63.5962L55.3405 63.6057L54.4872 67.1614L51.9832 64.5382L51.9786 64.5334C51.6019 64.1441 51.1415 63.8782 50.616 63.7467L50.6094 63.7451L47.0794 62.8866L49.7073 60.3782L49.7121 60.3735C50.1014 59.9968 50.3673 59.5364 50.4988 59.0109L50.4989 59.0109L50.5011 59.0014L51.353 55.4522L53.8653 58.1L53.8652 58.1L53.872 58.1071C54.2487 58.4964 54.7091 58.7622 55.2346 58.8937L55.242 58.8956L55.2495 58.8973L58.7756 59.723ZM30.6268 46.2374L24.4192 52.1666L24.4192 52.1666L24.4146 52.1711C24.0252 52.5478 23.7594 53.0082 23.6279 53.5337L23.6278 53.5337L23.626 53.5412L21.617 61.8389L15.6878 55.6313L15.6878 55.6313L15.6833 55.6267C15.3066 55.2374 14.8462 54.9716 14.3207 54.84L14.3207 54.84L14.3132 54.8382L6.01547 52.8291L12.2231 46.8999L12.2231 46.8999L12.2277 46.8955C12.617 46.5188 12.8828 46.0584 13.0144 45.5329L13.0144 45.5329L13.0162 45.5254L15.0253 37.2274L20.347 42.7975C20.3574 42.8116 20.3698 42.8276 20.3839 42.8447C20.4109 42.8776 20.4514 42.9234 20.5066 42.9723L20.9589 43.4398C21.3356 43.8292 21.796 44.095 22.3215 44.2265L22.3215 44.2266L22.329 44.2284L30.6268 46.2374Z" stroke="white" stroke-width="2"/>
<path d="M58.7756 59.723L56.1366 62.2269L56.1365 62.2269L56.1295 62.2336C55.7402 62.6103 55.4744 63.0707 55.3428 63.5962L55.3428 63.5962L55.3405 63.6057L54.4872 67.1614L51.9832 64.5382L51.9786 64.5334C51.6019 64.1441 51.1415 63.8782 50.616 63.7467L50.6094 63.7451L47.0794 62.8866L49.7073 60.3782L49.7121 60.3735C50.1014 59.9968 50.3673 59.5364 50.4988 59.0109L50.4989 59.0109L50.5011 59.0014L51.353 55.4522L53.8653 58.1L53.8652 58.1L53.872 58.1071C54.2487 58.4964 54.7091 58.7622 55.2346 58.8937L55.242 58.8956L55.2495 58.8973L58.7756 59.723ZM30.6268 46.2374L24.4192 52.1666L24.4192 52.1666L24.4146 52.1711C24.0252 52.5478 23.7594 53.0082 23.6279 53.5337L23.6278 53.5337L23.626 53.5412L21.617 61.8389L15.6878 55.6313L15.6878 55.6313L15.6833 55.6267C15.3066 55.2374 14.8462 54.9716 14.3207 54.84L14.3207 54.84L14.3132 54.8382L6.01547 52.8291L12.2231 46.8999L12.2231 46.8999L12.2277 46.8955C12.617 46.5188 12.8828 46.0584 13.0144 45.5329L13.0144 45.5329L13.0162 45.5254L15.0253 37.2274L20.347 42.7975C20.3574 42.8116 20.3698 42.8276 20.3839 42.8447C20.4109 42.8776 20.4514 42.9234 20.5066 42.9723L20.9589 43.4398C21.3356 43.8292 21.796 44.095 22.3215 44.2265L22.3215 44.2266L22.329 44.2284L30.6268 46.2374Z" stroke="url(#paint0_linear_131_9641)" stroke-opacity="0.5" stroke-width="2"/>
<path d="M36.8581 42.0136L26.5906 39.4978C29.1954 36.0093 32.7631 33.4185 36.9301 32.0191C45.9747 29.6414 59.9906 30.7221 69.2482 32.7726L69.2496 32.7729L73.3446 33.6738C73.3448 33.6738 73.3449 33.6739 73.3451 33.6739C80.2275 35.1976 87.4535 33.2614 92.6521 28.5006C92.6522 28.5005 92.6523 28.5004 92.6524 28.5003L95.7484 25.6725L95.7506 25.6704C102.709 19.2755 114.307 11.3314 123.295 8.8775C129.358 7.63625 135.444 9.03233 140.48 12.8009C145.75 16.7619 149.061 22.748 149.571 29.2389L149.578 29.3306L149.595 29.3949C149.595 29.3966 149.595 29.3984 149.595 29.4003C149.599 29.4527 149.603 29.5252 149.608 29.6179C149.619 29.8031 149.632 30.0639 149.649 30.3967C149.682 31.0618 149.727 32.0109 149.778 33.2104C149.882 35.6093 150.015 39.0079 150.144 43.1382C150.404 51.3993 150.652 62.5838 150.633 74.5477C150.615 86.5138 150.329 99.2484 149.524 110.613C148.718 122.002 147.394 131.931 145.327 138.332L145.326 138.337C144.678 140.381 143.037 141.935 140.891 142.51C139.391 142.912 137.878 142.847 136.454 142.296C135.042 141.729 133.843 140.763 132.997 139.483C132.996 139.482 132.996 139.481 132.995 139.48L109.428 103.331C109.427 103.33 109.427 103.329 109.426 103.328C107.718 100.676 104.57 99.4872 101.527 100.303C98.48 101.119 96.3777 103.682 96.1991 106.868L96.199 106.87L93.8721 150.004L94.8706 150.058L93.8721 150.004C93.7041 153.122 91.561 155.764 88.5489 156.571C87.5157 156.847 86.4382 156.86 85.3767 156.617C84.3405 156.362 83.3863 155.878 82.6253 155.177L82.6199 155.172C77.2267 150.276 70.446 141.228 63.4882 130.73C56.6253 120.375 49.6425 108.689 43.724 98.3724L43.7785 98.1613L49.4569 92.7482L49.4685 92.7371L49.4798 92.7257C50.1927 92.0011 50.4873 90.9846 50.2216 89.9927C49.9641 89.032 49.2075 88.2271 48.1779 87.9878L40.4802 86.094L34.9984 80.3818C34.521 79.8525 33.8399 79.5334 33.1212 79.5003C29.8193 73.4618 27.4369 68.9118 26.1763 66.5012L28.8263 55.6556L38.1379 46.774L38.1493 46.763L38.1605 46.7517C38.8734 46.0271 39.1681 45.0106 38.9023 44.0187C38.6448 43.0578 37.888 42.2528 36.8581 42.0136ZM53.9558 74.6784L53.9657 74.6888L53.976 74.6989C54.7006 75.4118 55.717 75.7064 56.709 75.4406C57.6697 75.1832 58.4745 74.4266 58.7139 73.397L60.6076 65.6993L66.3272 60.2104C67.0917 59.4955 67.3637 58.4567 67.0945 57.4523C66.8371 56.4916 66.0805 55.6867 65.0509 55.4474L57.3532 53.5536L51.8593 47.8289L51.8494 47.8186L51.8392 47.8085C51.1146 47.0956 50.0981 46.8009 49.1062 47.0667C48.1455 47.3241 47.3406 48.0807 47.1013 49.1103L45.2075 56.808L39.4828 62.3019L39.4724 62.3118L39.4624 62.3221C38.7494 63.0467 38.4548 64.0632 38.7206 65.0551C38.978 66.0158 39.7346 66.8206 40.7642 67.06L48.4619 68.9538L53.9558 74.6784Z" stroke="white" stroke-width="2"/>
<path d="M36.8581 42.0136L26.5906 39.4978C29.1954 36.0093 32.7631 33.4185 36.9301 32.0191C45.9747 29.6414 59.9906 30.7221 69.2482 32.7726L69.2496 32.7729L73.3446 33.6738C73.3448 33.6738 73.3449 33.6739 73.3451 33.6739C80.2275 35.1976 87.4535 33.2614 92.6521 28.5006C92.6522 28.5005 92.6523 28.5004 92.6524 28.5003L95.7484 25.6725L95.7506 25.6704C102.709 19.2755 114.307 11.3314 123.295 8.8775C129.358 7.63625 135.444 9.03233 140.48 12.8009C145.75 16.7619 149.061 22.748 149.571 29.2389L149.578 29.3306L149.595 29.3949C149.595 29.3966 149.595 29.3984 149.595 29.4003C149.599 29.4527 149.603 29.5252 149.608 29.6179C149.619 29.8031 149.632 30.0639 149.649 30.3967C149.682 31.0618 149.727 32.0109 149.778 33.2104C149.882 35.6093 150.015 39.0079 150.144 43.1382C150.404 51.3993 150.652 62.5838 150.633 74.5477C150.615 86.5138 150.329 99.2484 149.524 110.613C148.718 122.002 147.394 131.931 145.327 138.332L145.326 138.337C144.678 140.381 143.037 141.935 140.891 142.51C139.391 142.912 137.878 142.847 136.454 142.296C135.042 141.729 133.843 140.763 132.997 139.483C132.996 139.482 132.996 139.481 132.995 139.48L109.428 103.331C109.427 103.33 109.427 103.329 109.426 103.328C107.718 100.676 104.57 99.4872 101.527 100.303C98.48 101.119 96.3777 103.682 96.1991 106.868L96.199 106.87L93.8721 150.004L94.8706 150.058L93.8721 150.004C93.7041 153.122 91.561 155.764 88.5489 156.571C87.5157 156.847 86.4382 156.86 85.3767 156.617C84.3405 156.362 83.3863 155.878 82.6253 155.177L82.6199 155.172C77.2267 150.276 70.446 141.228 63.4882 130.73C56.6253 120.375 49.6425 108.689 43.724 98.3724L43.7785 98.1613L49.4569 92.7482L49.4685 92.7371L49.4798 92.7257C50.1927 92.0011 50.4873 90.9846 50.2216 89.9927C49.9641 89.032 49.2075 88.2271 48.1779 87.9878L40.4802 86.094L34.9984 80.3818C34.521 79.8525 33.8399 79.5334 33.1212 79.5003C29.8193 73.4618 27.4369 68.9118 26.1763 66.5012L28.8263 55.6556L38.1379 46.774L38.1493 46.763L38.1605 46.7517C38.8734 46.0271 39.1681 45.0106 38.9023 44.0187C38.6448 43.0578 37.888 42.2528 36.8581 42.0136ZM53.9558 74.6784L53.9657 74.6888L53.976 74.6989C54.7006 75.4118 55.717 75.7064 56.709 75.4406C57.6697 75.1832 58.4745 74.4266 58.7139 73.397L60.6076 65.6993L66.3272 60.2104C67.0917 59.4955 67.3637 58.4567 67.0945 57.4523C66.8371 56.4916 66.0805 55.6867 65.0509 55.4474L57.3532 53.5536L51.8593 47.8289L51.8494 47.8186L51.8392 47.8085C51.1146 47.0956 50.0981 46.8009 49.1062 47.0667C48.1455 47.3241 47.3406 48.0807 47.1013 49.1103L45.2075 56.808L39.4828 62.3019L39.4724 62.3118L39.4624 62.3221C38.7494 63.0467 38.4548 64.0632 38.7206 65.0551C38.978 66.0158 39.7346 66.8206 40.7642 67.06L48.4619 68.9538L53.9558 74.6784Z" stroke="url(#paint1_linear_131_9641)" stroke-opacity="0.5" stroke-width="2"/>
<path d="M41.9668 92.172L39.3437 94.676L39.3437 94.6759L39.3388 94.6806C38.9495 95.0573 38.6837 95.5177 38.5521 96.0432L38.5509 96.0481L38.0736 97.9963L38.069 98.015L38.0651 98.0338L38.0067 98.3193L37.6956 99.6141L35.1486 96.959L35.1486 96.959L35.1456 96.956C34.7689 96.5667 34.3085 96.3008 33.783 96.1693L33.7831 96.1693L33.7765 96.1677L30.2464 95.3092L32.8743 92.8007L32.8743 92.8008L32.8792 92.7961C33.2685 92.4194 33.5343 91.959 33.6659 91.4335L33.6659 91.4335L33.6682 91.424L34.52 87.8748L37.0323 90.5226L37.0323 90.5226L37.0391 90.5296C37.4158 90.919 37.8762 91.1848 38.4017 91.3163L38.4017 91.3164L38.4111 91.3186L41.9668 92.172Z" stroke="white" stroke-width="2"/>
<path d="M41.9668 92.172L39.3437 94.676L39.3437 94.6759L39.3388 94.6806C38.9495 95.0573 38.6837 95.5177 38.5521 96.0432L38.5509 96.0481L38.0736 97.9963L38.069 98.015L38.0651 98.0338L38.0067 98.3193L37.6956 99.6141L35.1486 96.959L35.1486 96.959L35.1456 96.956C34.7689 96.5667 34.3085 96.3008 33.783 96.1693L33.7831 96.1693L33.7765 96.1677L30.2464 95.3092L32.8743 92.8007L32.8743 92.8008L32.8792 92.7961C33.2685 92.4194 33.5343 91.959 33.6659 91.4335L33.6659 91.4335L33.6682 91.424L34.52 87.8748L37.0323 90.5226L37.0323 90.5226L37.0391 90.5296C37.4158 90.919 37.8762 91.1848 38.4017 91.3163L38.4017 91.3164L38.4111 91.3186L41.9668 92.172Z" stroke="url(#paint2_linear_131_9641)" stroke-opacity="0.5" stroke-width="2"/>
<defs>
<linearGradient id="paint0_linear_131_9641" x1="-4.00155" y1="49.2801" x2="68.1234" y2="42.4222" gradientUnits="userSpaceOnUse">
<stop stop-color="#BDDFEF"/>
<stop offset="1" stop-color="#F4E8B8"/>
</linearGradient>
<linearGradient id="paint1_linear_131_9641" x1="8.28373" y1="67.212" x2="185.916" y2="43.9482" gradientUnits="userSpaceOnUse">
<stop stop-color="#BDDFEF"/>
<stop offset="1" stop-color="#F4E8B8"/>
</linearGradient>
<linearGradient id="paint2_linear_131_9641" x1="25.009" y1="91.6926" x2="47.0759" y2="88.894" gradientUnits="userSpaceOnUse">
<stop stop-color="#BDDFEF"/>
<stop offset="1" stop-color="#F4E8B8"/>
</linearGradient>
</defs>
</svg>
