<svg width="123" height="70" viewBox="0 0 123 70" fill="none" xmlns="http://www.w3.org/2000/svg">
<path d="M61.5621 6.13067C61.5621 6.13067 41.6581 -5.73466 29.5229 3.54857C29.5229 3.54857 23.416 6.65125 25.2855 25.9832C25.2855 25.9832 30.5476 60.1125 43.2459 68.3464C43.2459 68.3464 48.4855 71.2868 51.3865 64.9691C51.3865 64.9691 54.5718 56.4729 55.4819 50.4278C55.4819 50.4278 55.8161 44.001 61.2801 46.2885C61.2801 46.2885 59.6435 41.9874 56.4513 43.8823C55.4614 44.4699 54.7346 45.4136 54.3523 46.4992C53.5533 48.7681 51.7796 53.9355 50.8807 57.5851C50.8807 57.5851 49.0358 69.1132 42.672 62.6989C42.672 62.6989 37.0504 53.6202 34.9236 45.8381C34.9236 45.8381 30.5015 25.2321 31.5474 13.4662C31.5474 13.4662 31.3174 -1.75974 61.5621 6.13067Z" fill="white"/>
<path d="M41.4658 8.26044C41.4658 8.26044 49.5534 2.76125 58.4613 8.26044C58.4613 8.26044 54.7691 11.4029 47.7952 9.88773C47.7952 9.88773 53.6989 13.9339 66.774 6.80379L74.0917 3.41175C74.0917 3.41175 82.1006 -1.7551 88.5192 5.85901C88.5192 5.85901 92.5822 11.262 90.8608 21.8686C90.8608 21.8686 89.8361 35.2504 83.9309 47.429C83.9309 47.429 79.6155 65.4792 69.3949 69.9372C69.3949 69.9372 62.3542 72.0033 62.3542 52.4309C62.3542 52.4309 63.9659 60.5262 65.7108 63.2412C65.7108 63.2412 69.0372 69.6107 72.3635 62.5623C72.3635 62.5623 79.6935 51.0183 82.4016 34.5109C82.4016 34.5109 87.3288 14.234 82.1974 9.6582C82.1974 9.6582 75.5323 3.64335 66.3759 9.86481C66.3759 9.86481 50.405 20.0593 41.4658 8.26044Z" fill="white"/>
<path d="M63.957 28.3783H63.9663C63.9663 29.6703 64.0736 30.9711 63.9436 32.2522C63.6826 34.828 65.2415 36.8011 67.3288 37.6268C68.2845 38.0047 69.319 38.2438 70.3415 38.4486C71.0482 38.5902 71.8013 38.5282 72.5236 38.6218C74.4044 38.8658 75.7369 38.031 76.8577 36.8217C77.6005 36.0203 77.7015 35.0202 77.6708 34.0193C77.6473 33.2565 77.5586 32.4954 77.5076 31.7331C77.4227 30.4663 76.2028 29.1145 75.0203 28.7617C74.4083 28.5789 73.7688 28.4603 73.1328 28.3578C72.0614 28.1852 70.9813 28.056 69.9077 27.8932C69.4032 27.8166 68.8871 27.7514 68.4087 27.598C67.3808 27.2688 66.6843 26.5324 65.9261 25.8634C64.9435 24.9964 65.2034 23.4862 66.2513 22.8257C67.1573 22.2543 68.1239 21.7527 68.9758 21.1224C69.8152 20.5016 70.587 19.7928 71.3112 19.0597C72.1933 18.1668 71.342 17.107 70.3862 17.0566C69.6077 17.0156 68.8017 17.0494 68.039 17.1899C66.5434 17.4657 65.4548 18.353 64.4537 19.3468C63.5587 20.2353 63.3458 21.2321 63.6885 22.3796C63.8397 22.8859 63.9332 23.4204 63.9453 23.9443C63.9791 25.4217 63.957 26.9002 63.957 28.3783ZM80.4625 33.4963C80.5687 34.7735 80.2381 36.0219 79.6716 37.1554C78.9379 38.6226 77.9466 39.9861 76.1795 40.6412C75.4908 40.8967 74.8068 41.1199 74.0068 40.9745C73.0173 40.7946 71.9896 40.7895 70.9979 40.6165C69.5867 40.3699 68.1903 40.0499 66.7931 39.7413C65.7099 39.5022 64.6395 39.5331 63.568 39.7848C62.4078 40.0571 62.4589 40.0102 61.7903 39.0858C61.1211 38.1604 60.9739 37.1495 61.429 36.2434C62.012 35.0823 61.8832 33.9221 61.8907 32.7478C61.8943 32.185 61.8118 31.6111 61.6783 31.0602C61.3028 29.5106 61.266 27.9383 61.1794 26.3646C61.1188 25.2665 60.9853 24.1664 60.7857 23.0823C60.6947 22.5888 60.3139 22.1453 60.1526 21.6552C59.7006 20.2821 60.2199 19.0008 61.5794 18.0955C62.6935 17.3537 63.8165 16.6216 64.9546 15.9102C65.8287 15.3636 66.8639 15.1606 67.8525 14.8548C69.3098 14.4039 70.7904 14.4277 72.2859 14.5804C73.7029 14.7252 74.8741 15.6992 75.0823 16.9435C75.1973 17.6321 74.7443 18.1645 74.3532 18.6849C73.3728 19.9891 72.2472 21.1699 70.916 22.2083C70.289 22.6973 69.851 23.4026 69.3932 24.0482C69.0855 24.4819 69.2778 24.8185 69.8419 24.9528C70.6105 25.1358 71.3938 25.2692 72.1589 25.4622C73.4536 25.7886 74.7634 26.0867 76.0184 26.5135C76.6561 26.7305 77.2124 27.1745 77.7607 27.5674C78.2179 27.8951 78.7383 28.2341 79.0068 28.6792C79.9042 30.1671 80.5992 31.7301 80.4625 33.4963Z" fill="#231F20"/>
<path d="M3.97865 24.8296C3.31203 25.3138 3.1947 25.8776 3.19516 26.4099C3.19744 28.6905 3.26129 30.9711 3.29527 33.2518C3.30563 33.9568 3.27119 34.663 3.30075 35.3672C3.3137 35.6782 3.34783 36.0365 3.52443 36.284C3.92502 36.8453 3.87291 37.4513 3.80221 38.035C3.73638 38.5781 3.21481 38.8631 2.69111 39.0573C2.19712 39.2406 1.75982 39.1447 1.39229 38.7649C0.815262 38.1685 0.571315 37.4741 0.524994 36.6919C0.464959 35.6744 0.358299 34.6592 0.280284 33.6424C0.185509 32.4088 0.0779347 31.1754 0.0185096 29.9402C-0.0166883 29.2055 0.00144399 28.466 0.0465461 27.7313C0.118466 26.5607 0.193432 25.3883 0.339557 24.2241C0.512652 22.8452 0.758427 21.4739 0.980738 20.1003C1.07612 19.5114 1.56646 19.071 2.22287 18.9584C2.8287 18.8544 3.54638 19.1125 3.83314 19.6189C4.4571 20.7203 5.03962 21.8409 5.63616 22.955C6.83045 25.1856 8.02199 27.4174 9.21628 29.648C9.70753 30.5655 10.2027 31.4811 10.696 32.3979C11.3352 33.5855 11.9552 34.7823 12.6314 35.9524C12.7477 36.1537 13.1028 36.3542 13.348 36.3545C13.7131 36.3549 13.8769 36.061 13.8807 35.7081C13.8994 33.9276 13.9285 32.1474 13.9589 30.3672C13.9904 28.5069 14.0331 26.6468 14.0606 24.7864C14.1001 22.1203 14.1338 19.4539 14.1614 16.7876C14.1668 16.2597 14.3703 15.7984 14.8574 15.5448C15.3285 15.2994 15.8189 15.4598 16.2467 15.7588C16.8404 16.174 17.5519 16.4721 17.8482 17.1689C18.079 17.7121 18.0631 18.208 17.6172 18.6685C16.8082 19.5035 16.3814 20.4723 16.3545 21.5953C16.3138 23.2868 16.247 24.9779 16.1794 26.6688C16.0904 28.8965 15.9592 31.1233 15.9053 33.3514C15.8713 34.7533 15.9249 36.1582 15.9819 37.5603C16.0014 38.0401 16.2053 38.5135 16.2289 38.9938C16.2799 40.0277 15.9846 40.9697 15.0119 41.6059C14.1751 42.1532 12.9916 41.8281 12.6012 40.9706C12.032 39.7194 11.5275 38.4425 10.9136 37.21C10.3056 35.9897 9.59843 34.8098 8.93074 33.6142C8.59766 33.0174 8.25832 32.4236 7.91716 31.8309C6.9272 30.1114 5.92871 28.3957 4.94683 26.6724C4.61968 26.0984 4.33231 25.5057 3.97865 24.8296Z" fill="#231F20"/>
<path d="M52.308 34.6686C52.243 34.1382 52.235 33.1443 51.4786 32.3207C50.4167 31.1643 48.9038 30.9411 47.5267 31.7522C46.873 32.1372 46.4819 32.6946 46.0383 33.2614C45.48 33.9746 45.2275 34.715 45.1862 35.5387C45.1518 36.2255 45.4066 36.8636 45.8617 37.4115C46.7316 38.4583 47.9043 38.6793 49.2243 38.3042C51.0163 37.7951 52.4388 36.8365 52.308 34.6686ZM51.1312 28.9422C50.9765 28.603 50.9007 28.2043 50.6532 27.9354C49.6611 26.8577 48.4083 26.4256 46.8555 27.0477C46.2367 27.2955 46.0709 27.8741 45.8535 28.3791C45.463 29.2856 44.2745 29.931 43.2808 29.7257C42.0913 29.4799 41.5216 28.3074 42.0655 27.3147C42.5592 26.414 43.4789 25.9439 44.3537 25.4873C46.2902 24.4765 48.4133 24.3804 50.5177 24.9143C51.3157 25.1167 52.0273 25.6587 52.7258 26.1127C54.1888 27.0633 54.2015 28.5774 54.4055 29.9827C54.6245 31.4915 54.7794 33.0107 54.8812 34.5299C54.9536 35.6123 54.9345 36.704 54.8763 37.7881C54.8326 38.6023 54.2687 39.1515 53.4587 39.4486C52.0395 39.9692 50.6047 40.4384 49.0538 40.5512C47.6873 40.6509 46.3184 40.67 45.127 39.9995C44.4867 39.6393 43.9376 39.0885 43.4768 38.535C42.4352 37.2841 42.0701 35.8352 42.487 34.3153C42.6973 33.5495 43.0866 32.7841 43.578 32.1318C44.2385 31.2549 44.9883 30.3988 45.8574 29.6936C47.1762 28.6232 48.7368 28.2239 50.4714 28.9048C50.6203 28.9634 50.782 28.9951 50.9378 29.0391C51.0023 29.0069 51.0667 28.9746 51.1312 28.9422Z" fill="#231F20"/>
<path d="M98.3619 27.5215C98.8864 27.0021 99.2638 26.5503 99.7261 26.1878C100.517 25.5676 101.398 25.0824 102.495 25.0406C103.686 24.9951 104.649 25.3697 105.404 26.2241C106.657 27.6431 107.285 29.283 107.691 31.043C108.221 33.3421 108.348 35.6611 108.316 37.9929C108.307 38.6397 108.151 39.2907 108.001 39.9277C107.906 40.3331 107.184 40.6949 106.659 40.6805C106.164 40.6669 105.474 40.2445 105.382 39.8416C105.289 39.4339 105.237 39.0137 105.221 38.5971C105.146 36.7199 105.176 34.8354 104.995 32.9674C104.9 31.9889 104.448 31.0387 104.156 30.0759C104.127 29.9796 104.088 29.8856 104.054 29.7906C103.633 28.6322 102.28 28.243 101.236 29.0225C100.132 29.8472 99.7371 30.9979 99.7071 32.2431C99.6658 33.9637 99.7316 35.687 99.6742 37.4068C99.6449 38.2889 99.4715 39.17 99.3159 40.0445C99.241 40.4667 98.3618 40.8555 97.8076 40.7708C97.2414 40.6842 96.7802 40.1926 96.7686 39.7028C96.7348 38.2634 96.7962 36.8129 96.6139 35.3884C96.4449 34.0662 96.0029 32.7736 95.6985 31.4646C95.615 31.1056 95.5594 30.7351 95.5513 30.3687C95.5232 29.1325 95.4943 27.8953 95.5219 26.6595C95.5385 25.9198 96.2083 25.3726 96.9557 25.3886C97.7395 25.4052 98.2501 25.9342 98.3034 26.7818C98.3167 26.9911 98.3363 27.2 98.3619 27.5215Z" fill="#231F20"/>
<path d="M114.684 33.5594C115.748 33.5849 116.775 33.3767 117.686 32.9348C118.474 32.5528 118.583 32.4059 118.214 31.5527C118.127 31.3513 118.055 31.1422 117.945 30.9512C117.569 30.2998 117.239 29.6183 116.783 29.0161C116.107 28.1233 114.559 28.2748 114.158 29.1656C113.688 30.2135 113.215 31.2627 112.81 32.3322C112.609 32.8623 112.845 33.2136 113.437 33.3808C113.834 33.4934 114.267 33.5035 114.684 33.5594ZM110.49 33.4772C110.541 32.5405 110.499 31.5901 110.665 30.6704C110.869 29.5394 111.012 28.3201 111.595 27.341C112.869 25.1979 115.354 24.4809 117.455 26.3649C118.797 27.568 119.922 28.9426 120.649 30.4961C121.118 31.5004 121.194 32.6727 121.335 33.7812C121.407 34.3421 120.898 34.7466 120.162 34.8581C118.851 35.0564 117.534 35.2246 116.218 35.3924C115.397 35.4973 114.57 35.5703 113.748 35.6734C113.245 35.7364 113.044 36.0187 113.291 36.4241C113.628 36.9764 113.985 37.5493 114.475 37.9825C114.761 38.2364 115.314 38.2798 115.761 38.3412C116.795 38.4838 117.718 38.0847 118.644 37.7589C119.639 37.4086 120.611 37.0024 121.604 36.646C122.259 36.411 122.985 36.7819 122.91 37.5066C122.78 38.7735 121.933 40.0371 120.177 40.2089C118.658 40.3576 117.16 40.6814 115.642 40.8432C113.773 41.0422 111.821 39.8229 111.226 38.2726C110.516 36.4223 110.395 36.0978 110.49 33.4772Z" fill="#231F20"/>
<path d="M86.6656 33.4366C86.653 33.3976 86.6782 33.4756 86.6656 33.4366C87.6213 33.2166 88.6265 33.1477 89.5669 32.8827C90.2729 32.6838 90.5304 32.1818 90.2256 31.5721C89.7642 30.6489 89.2588 29.739 88.6955 28.8641C88.223 28.1302 86.6167 28.132 86.2114 28.8874C85.6671 29.9016 85.1996 30.9596 84.8237 32.0347C84.5283 32.8799 84.8565 33.2298 85.8387 33.378C86.1104 33.419 86.3897 33.4182 86.6656 33.4366ZM82.4028 34.5106C82.3587 33.9502 82.3733 33.3874 82.4464 32.8295C82.6317 31.4119 82.8104 29.8816 83.1103 28.3711C83.3849 26.9877 84.243 25.9076 85.7753 25.3863C86.8492 25.0209 88.4899 25.2903 89.33 26.1795C90.4732 27.3892 91.6797 28.5459 92.4094 30.0335C92.927 31.0886 93.2889 32.1705 93.3089 33.3245C93.3284 34.4577 92.8245 34.7012 91.5752 34.8856C89.6983 35.1627 87.804 35.3404 85.9196 35.5769C85.1439 35.6742 84.9843 36.0069 85.3753 36.6208C85.3848 36.6353 85.3965 36.6488 85.4041 36.664C86.3903 38.6487 88.1166 38.4605 89.8325 37.933C91.0556 37.557 92.2325 37.0593 93.4361 36.6295C94.2865 36.3256 94.9202 36.7497 94.8397 37.5767C94.7073 38.9337 93.838 39.811 92.3591 40.0613C90.9605 40.298 89.5675 40.5799 88.1578 40.738C86.4223 40.9328 84.8227 40.495 83.7769 39.1989C83.1999 38.4835 82.9101 37.5314 82.6786 36.6457C82.5054 35.9832 82.4644 35.2921 82.4028 34.5106Z" fill="#231F20"/>
<path d="M23.9346 28.6791C21.8461 28.6641 20.1977 29.8717 19.9554 31.7589C19.8178 32.8302 19.8614 33.9368 19.9801 35.0133C20.0546 35.6886 20.3342 36.377 20.674 36.9898C21.2622 38.0505 22.2284 38.4917 23.4162 38.2158C23.9751 38.0859 24.5319 37.7479 24.9535 37.377C25.689 36.7301 26.3153 35.9816 26.9942 35.2813C27.64 34.6154 27.8416 33.8275 27.8526 32.962C27.8666 31.8782 27.3548 30.962 26.6811 30.1494C26.0148 29.3454 25.1938 28.6375 23.9346 28.6791ZM22.7155 41.0915C21.2309 41.0925 20.0238 40.5563 19.1198 39.4956C18.899 39.2364 18.7325 38.9155 18.633 38.599C18.0326 36.6925 17.5144 34.7548 17.6679 32.7636C17.8204 30.7859 18.1757 28.8154 19.4038 27.1014C20.2708 25.8914 21.4311 24.987 23.0973 24.901C23.9889 24.8552 24.9278 25.0295 25.5687 25.6314C26.5784 26.5796 27.5576 27.572 28.4061 28.6397C29.3021 29.767 30.0444 31.001 30.1875 32.438C30.3306 33.8738 29.9562 35.2052 29.0682 36.3924C28.4367 37.2366 27.8097 38.1065 27.0288 38.8299C25.979 39.8028 24.8685 40.7655 23.3178 41.0861C23.1264 41.1257 22.9166 41.0915 22.7155 41.0915Z" fill="#231F20"/>
<path d="M36.8265 29.8798C37.0072 31.8669 37.1409 33.8622 37.3406 35.8476C37.4074 36.5124 37.5888 37.1678 37.6537 37.8325C37.7202 38.5132 37.7494 39.202 37.7164 39.884C37.692 40.3901 36.8194 40.9414 36.2332 40.8991C35.4884 40.8452 34.8996 40.3414 34.8996 39.7127C34.8998 38.6889 34.9594 37.6647 34.9386 36.6417C34.9182 35.6365 34.8437 34.6316 34.7665 33.6282C34.6715 32.3916 34.5751 31.1539 34.4291 29.9217C34.3424 29.1905 34.1756 28.4654 34.0022 27.7462C33.9753 27.6349 33.7034 27.4782 33.5729 27.4975C32.9375 27.5925 32.3113 27.7394 31.6821 27.8694C31.3431 27.9395 31.0082 28.0533 30.6655 28.0764C29.8093 28.1343 29.1621 27.5749 29.0985 26.7664C29.0289 25.8813 29.7284 25.1305 30.6872 25.0785C31.5141 25.034 32.3418 24.9973 33.1697 24.9736C33.6438 24.96 33.8071 24.7775 33.7638 24.3406C33.6252 22.938 33.5272 21.5321 33.403 20.1283C33.3492 19.5201 33.7782 19.0144 34.5492 18.8137C35.2522 18.6306 36.0465 18.9898 36.3664 19.6409C36.4264 19.7629 36.4974 19.8925 36.5055 20.0215C36.5783 21.1938 36.6388 22.3667 36.7011 23.5397C36.7109 23.7237 36.7151 23.9079 36.7171 24.0921C36.7208 24.4426 36.8949 24.619 37.2993 24.5966C38.2136 24.5456 39.1301 24.5209 40.0423 24.4507C40.4868 24.4165 40.8572 24.4818 41.114 24.8264C41.373 25.1741 41.3123 25.5158 41.0763 25.8637C40.9523 26.0463 40.868 26.2584 40.8063 26.4671C40.5845 27.2165 40.2425 27.4096 39.4126 27.3405C38.7001 27.2811 37.9806 27.2894 37.264 27.277C36.9422 27.2713 36.8133 27.4201 36.8207 27.7215C36.8387 28.4405 36.8265 29.1603 36.8265 29.8798C36.8383 29.8773 36.8149 29.8823 36.8265 29.8798Z" fill="#231F20"/>
</svg>
